<svg xmlns="http://www.w3.org/2000/svg" width="21" height="24" viewBox="0 0 21 24"><defs><style>.a{fill:#2e81d4;}</style></defs><g transform="translate(-1)"><path class="a" d="M4,13.5a1.5,1.5,0,0,1,3,0V15a1.5,1.5,0,0,1-3,0Zm9-6a1.5,1.5,0,0,1,3,0V15a1.5,1.5,0,0,1-3,0Zm-4.5,3a1.5,1.5,0,0,1,3,0V15a1.5,1.5,0,0,1-3,0Z" transform="translate(1.5 3)"/><path class="a" d="M5.5,1.5H4a3,3,0,0,0-3,3V20.25a3,3,0,0,0,3,3H19a3,3,0,0,0,3-3V4.5a3,3,0,0,0-3-3H17.5V3H19a1.5,1.5,0,0,1,1.5,1.5V20.25a1.5,1.5,0,0,1-1.5,1.5H4a1.5,1.5,0,0,1-1.5-1.5V4.5A1.5,1.5,0,0,1,4,3H5.5Z" transform="translate(0 0.75)"/><path class="a" d="M11.75,1.5a.75.75,0,0,1,.75.75v1.5a.75.75,0,0,1-.75.75H7.25a.75.75,0,0,1-.75-.75V2.25a.75.75,0,0,1,.75-.75ZM7.25,0A2.25,2.25,0,0,0,5,2.25v1.5A2.25,2.25,0,0,0,7.25,6h4.5A2.25,2.25,0,0,0,14,3.75V2.25A2.25,2.25,0,0,0,11.75,0Z" transform="translate(2)"/></g></svg>