<svg xmlns="http://www.w3.org/2000/svg" width="120.5" height="36" viewBox="0 0 120.5 36"><defs><style>.a,.c{fill:#fff;}.a{font-size:24px;font-family:TitilliumWeb-Regular, Titillium Web;}.b{font-family:TitilliumWeb-SemiBold, Titillium Web;font-weight:600;}.c{stroke:#fff;}</style></defs><g transform="translate(-33.5 -15)"><text class="a" transform="translate(72 42)"><tspan x="0" y="0">Pet</tspan><tspan class="b" y="0">Vital</tspan></text><g transform="translate(34 19)"><path class="c" d="M21.931.493a9.9,9.9,0,0,0-3.064.49A2.885,2.885,0,0,0,16.786,0a17.768,17.768,0,0,0-4.37.793,2.447,2.447,0,0,0-.9.486A9.906,9.906,0,0,0,7.639.493C3.356.493,0,4.633,0,9.916,0,15.463,3.587,23.07,13.6,26.725l.029.011q.493.18,1.008.345a.5.5,0,0,0,.152.026.487.487,0,0,0,.152-.024,28.33,28.33,0,0,0,2.739-1.048c.012,0,.025,0,.037-.008s.02-.016.032-.022C26.41,22.128,29.57,15.114,29.57,9.916c0-5.283-3.356-9.423-7.639-9.423Zm6.653,9.423a15,15,0,0,1-2.731,8.343,25.875,25.875,0,0,0-3.791-6.286,5.52,5.52,0,0,0-2.374-1.55L19.486,9a2.908,2.908,0,0,0,1.243-2.592,8.916,8.916,0,0,0-1.224-4.592,8.942,8.942,0,0,1,2.426-.336c3.731,0,6.653,3.706,6.653,8.437Zm-27.6,0c0-4.731,2.923-8.437,6.653-8.437a8.913,8.913,0,0,1,3.222.609L9.9,3.528a1.488,1.488,0,0,1-.871.617l-2.862.711a.98.98,0,0,0-.739.918c-.032.838.08,3.635,2.825,4.551a.493.493,0,0,0,.156.026,13.869,13.869,0,0,1,4.273.726l-.12.259a10.853,10.853,0,0,0-1.225,4.928,8,8,0,0,0,1.971,5.122v4.172C4.254,21.995.986,15.024.986,9.916Zm5.421-4.1.986-.246v.842h-.97A5.146,5.146,0,0,1,6.407,5.811ZM17.819,24.884a3.474,3.474,0,0,1-.077-.735,3.89,3.89,0,0,1,1.49-3.144,2.983,2.983,0,0,1,2.79-.331.493.493,0,0,0,.311-.936,3.979,3.979,0,0,0-3.678.469,4.888,4.888,0,0,0-1.9,3.943,4.325,4.325,0,0,0,.148,1.143c-.674.287-1.38.557-2.122.8-.168-.055-.328-.114-.493-.172V21.192a.493.493,0,0,0-.143-.348,7.106,7.106,0,0,1-1.825-4.58,9.857,9.857,0,0,1,1.134-4.512l.12-.261a.969.969,0,0,0,.025-.766.99.99,0,0,0-.553-.552,14.324,14.324,0,0,0-4.553-.809A2.953,2.953,0,0,1,6.613,7.393h.779a.986.986,0,0,0,.986-.986V5.323L9.27,5.1a2.476,2.476,0,0,0,1.45-1.027L11.872,2.35A1.489,1.489,0,0,1,12,2.186a1.453,1.453,0,0,1,.69-.444,17.281,17.281,0,0,1,4.1-.757,2.119,2.119,0,0,1,1.548.876,7.532,7.532,0,0,1,1.41,4.545,1.856,1.856,0,0,1-1,1.879,2.883,2.883,0,0,1-2.168-.045.493.493,0,0,1-.311-.458V4.436a.493.493,0,1,0-.986,0V7.782a1.488,1.488,0,0,0,.933,1.375,4.078,4.078,0,0,0,2.333.224l.17,1.183a.977.977,0,0,0,.718.807,4.623,4.623,0,0,1,1.935,1.3,26.014,26.014,0,0,1,3.813,6.505,20.173,20.173,0,0,1-7.36,5.708Z"/></g></g></svg>